<svg data-v-423bf9ae="" xmlns="http://www.w3.org/2000/svg" viewBox="0 0 77.76844476254502 60" class="font"><!----><!----><defs data-v-423bf9ae=""><linearGradient data-v-423bf9ae="" gradientTransform="rotate(25)" id="9a77fd32-94ef-4244-8611-ff59ce689a83" x1="0%" y1="0%" x2="100%" y2="0%"><stop data-v-423bf9ae="" offset="0%" style="stop-color: rgb(30, 11, 54); stop-opacity: 1;"></stop><stop data-v-423bf9ae="" offset="100%" style="stop-color: rgb(202, 55, 130); stop-opacity: 1;"></stop></linearGradient></defs><g data-v-423bf9ae="" id="5d55c802-36cc-4f8f-a85a-674a4248c754" fill="url(#9a77fd32-94ef-4244-8611-ff59ce689a83)" transform="matrix(6.4484611987282765,0,0,6.4484611987282765,-3.417683886211158,-22.3761603056605)"><path d="M3.79 3.61L1.42 3.60L0.54 4.57L0.53 12.48L0.53 12.48Q2.25 12.84 3.28 12.76L3.28 12.76L3.28 12.76Q4.32 12.67 5.10 12.11L5.10 12.11L5.10 12.11Q5.87 11.55 6.27 10.75L6.27 10.75L6.27 10.75Q6.67 9.95 6.45 8.95L6.45 8.95L6.45 8.95Q6.23 7.95 5.48 7.56L5.48 7.56L5.48 7.56Q4.73 7.17 4.20 7.21L4.20 7.21L4.20 7.21Q5.64 6.45 5.65 5.14L5.65 5.14L5.65 5.14Q5.65 3.84 3.79 3.61L3.79 3.61ZM1.86 4.85L1.86 4.85Q4.25 4.66 4.44 5.70L4.44 5.70L4.44 5.70Q4.63 6.74 3.60 7.10L3.60 7.10L3.60 7.10Q2.71 7.03 1.86 7.20L1.86 7.20L1.86 4.85ZM3.72 8.22L3.72 8.22L3.72 8.22Q4.59 8.35 5.19 9.05L5.19 9.05L5.19 9.05Q5.79 9.75 5.49 10.55L5.49 10.55L5.49 10.55Q5.20 11.35 4.38 11.49L4.38 11.49L4.38 11.49Q3.57 11.63 1.87 11.22L1.87 11.22L1.88 8.31L1.88 8.31Q2.84 8.08 3.72 8.22ZM8.66 3.47L7.28 4.06L7.28 12.17L7.28 12.17Q7.27 12.54 7.14 12.69L7.14 12.69L11.46 12.68L12.59 11.12L12.59 11.12Q12.11 11.46 8.63 11.45L8.63 11.45L8.64 3.49L8.66 3.47Z"></path></g><!----><!----></svg>